<?xml version="1.0" encoding="UTF-8"?>
<svg width="698px" height="513px" viewBox="0 0 698 513" version="1.1" xmlns="http://www.w3.org/2000/svg" xmlns:xlink="http://www.w3.org/1999/xlink">
    <!-- Generator: Sketch 46.2 (44496) - http://www.bohemiancoding.com/sketch -->
    <title>Browser Mockup</title>
    <desc>Created with Sketch.</desc>
    <defs></defs>
    <g id="Components" stroke="none" stroke-width="1" fill="none" fill-rule="evenodd">
        <g id="Mockups" transform="translate(-447.000000, -203.000000)">
            <g id="Browser-Mockup" transform="translate(447.000000, 203.000000)">
                <g id="Browser_Mockup">
                    <g id="Base" transform="translate(0.000000, 29.092628)" fill="#FDFDFD">
                        <rect id="Base_Background" x="0" y="0" width="698" height="483.907372"></rect>
                    </g>
                    <g id="Top">
                        <path d="M3.32380952,0 L694.67619,0 C696.51188,1.31179385e-16 698,1.73669507 698,3.87901701 L698,29.0926276 L0,29.0926276 L0,3.87901701 C-2.24807104e-16,1.73669507 1.48812021,3.93538156e-16 3.32380952,0 L3.32380952,0 Z" id="Top_Background" fill="#F2F2F2"></path>
                        <g id="Buttons" transform="translate(12.464286, 9.697543)">
                            <ellipse id="Circle" fill="#12F60A" cx="23.99375" cy="4.84877127" rx="3.42767857" ry="3.87901701"></ellipse>
                            <ellipse id="Circle-2" fill="#F5BB1F" cx="13.7107143" cy="4.84877127" rx="3.42767857" ry="4.00023629"></ellipse>
                            <ellipse id="Circle-3" fill="#F50808" cx="3.42767857" cy="4.84877127" rx="3.42767857" ry="4.00023629"></ellipse>
                        </g>
                    </g>
                    <path d="M373.068536,248.257089 L324.930633,248.257089 C324.701876,248.258116 324.482838,248.365154 324.321705,248.554657 C324.160573,248.74416 324.070545,249.000604 324.071429,249.267573 L324.071429,293.7919 C324.069881,294.059371 324.159615,294.316563 324.320819,294.506697 C324.482024,294.69683 324.701442,294.804268 324.930633,294.805293 L373.068536,294.805293 C373.297803,294.804267 373.517305,294.69686 373.678642,294.506755 C373.839978,294.31665 373.929897,294.059461 373.928571,293.7919 L373.928571,249.267573 C373.929951,248.711481 373.545032,248.259227 373.068536,248.257089 Z M372.209331,292.780446 L325.790669,292.780446 L325.790669,250.279026 L372.209331,250.279026 L372.209331,292.779476 L372.209331,292.780446 Z M337.825352,270.658412 C339.782617,270.678457 341.556697,269.317809 342.317486,267.213128 C343.078275,265.108448 342.675305,262.675991 341.29713,261.053927 C339.918955,259.431862 337.838146,258.940996 336.028332,259.811009 C334.218518,260.681023 333.037638,262.739847 333.038236,265.02414 C333.02995,268.121327 335.171494,270.64185 337.825352,270.658412 L337.825352,270.658412 Z M337.825352,261.411805 C339.079235,261.399231 340.215672,262.270989 340.703074,263.619299 C341.190476,264.96761 340.932483,266.525908 340.049775,267.565271 C339.167067,268.604633 337.834158,268.919576 336.674542,268.362779 C335.514925,267.805982 334.757859,266.487525 334.757476,265.02414 C334.751492,263.03854 336.12397,261.422053 337.825352,261.410836 L337.825352,261.411805 Z M330.088355,288.733662 C330.297583,288.733399 330.499482,288.643704 330.655895,288.481526 L344.679048,273.946849 L353.534507,284.371707 C353.695115,284.561162 353.913988,284.667768 354.142349,284.667768 C354.37071,284.667768 354.589582,284.561162 354.75019,284.371707 C355.086009,283.975069 355.086009,283.336988 354.75019,282.94035 L350.617864,278.076062 L358.511912,267.90334 L368.192507,278.348563 C368.36004,278.529456 368.582589,278.624673 368.810609,278.613016 C369.038629,278.601359 369.253191,278.483795 369.406529,278.286499 C369.727509,277.873189 369.703797,277.235422 369.353348,276.856112 L359.037905,265.725272 C358.869085,265.546618 358.64746,265.451364 358.419676,265.45956 C358.191316,265.471647 357.976543,265.589641 357.823052,265.787336 L349.403843,276.642766 L345.32636,271.843452 C345.006816,271.466091 344.490005,271.44691 344.150562,271.799813 L329.5258,286.960951 C329.169021,287.331824 329.134201,287.968607 329.44769,288.389399 C329.609205,288.605718 329.842507,288.73073 330.088355,288.732692 L330.088355,288.733662 Z" id="icon-xs" fill="#22CFF1"></path>
                </g>
            </g>
        </g>
    </g>
</svg>