<?xml version="1.0" encoding="UTF-8"?>
<svg width="470px" height="563px" viewBox="0 0 470 563" version="1.1" xmlns="http://www.w3.org/2000/svg" xmlns:xlink="http://www.w3.org/1999/xlink">
    <!-- Generator: Sketch 46.2 (44496) - http://www.bohemiancoding.com/sketch -->
    <title>Group 2</title>
    <desc>Created with Sketch.</desc>
    <defs></defs>
    <g id="Components" stroke="none" stroke-width="1" fill="none" fill-rule="evenodd">
        <g id="Intro" transform="translate(-227.000000, -6949.000000)">
            <g id="Intro-#9" transform="translate(0.000000, 6800.000000)">
                <g id="Group-2" transform="translate(227.000000, 149.000000)">
                    <g id="Group" transform="translate(91.000000, 0.000000)">
                        <g id="Ipad-Mini-Mockup">
                            <g id="Ipad_Mini_Mockup">
                                <g id="Body">
                                    <path d="M28.344,0.994 L349.898,0.994 C365.51548,1.02460853 378.180373,13.6546634 378.254,29.272 L378.254,534.804 C378.307497,542.231237 375.386661,549.371039 370.142853,554.63119 C364.899045,559.891342 357.768368,562.834383 350.341,562.804 L28.79,562.804 C13.202,562.804 0.009,550.344 0.009,534.804 L0.009,29.272 C0.0760252406,13.6601046 12.7320013,1.0295879 28.344,0.994 Z" id="Inner_Panel" fill="#FDFDFD"></path>
                                    <g id="Home_button" transform="translate(175.000000, 521.000000)" stroke="#EEEEEE" fill="#FCFCFC">
                                        <path d="M14.344,0.694 C22.0303819,0.708904106 28.2510008,6.94890797 28.2419895,14.635299 C28.2329782,22.3216901 21.9977453,28.5470911 14.3113496,28.5439727 C6.62495385,28.5408542 0.394774377,22.3103959 0.392,14.624 C0.399176643,6.92505563 6.64505389,0.689027098 14.344,0.694 Z" id="_1"></path>
                                    </g>
                                </g>
                                <rect id="Screen" stroke="#DBDBDB" stroke-width="2" fill="#FFFFFF" x="17" y="50" width="344" height="457" rx="2"></rect>
                                <g id="Camera" transform="translate(185.000000, 23.000000)" fill="#EEEEEE">
                                    <path d="M8.108,4.296 C8.11366767,5.82064801 7.19949681,7.19828623 5.7924512,7.78548834 C4.38540558,8.37269045 2.76313325,8.05358564 1.68331694,6.97721189 C0.603500642,5.90083815 0.279217248,4.27959304 0.861923413,2.87067956 C1.44462958,1.46176608 2.81934166,0.543200838 4.344,0.544 C6.41857682,0.54288976 8.10248574,2.22143021 8.108,4.296 Z" id="Shape"></path>
                                </g>
                            </g>
                            <path d="M216.788713,256 L160.996416,256 C160.731681,256.000403 160.477955,256.105981 160.29108,256.293497 C160.104206,256.481014 159.999498,256.7351 160.000003,256.999835 L160.000003,300.999785 C159.999397,301.264585 160.10406,301.51877 160.290946,301.706368 C160.477831,301.893967 160.731615,301.999597 160.996416,302 L216.788713,302 C217.053514,301.999597 217.307298,301.893967 217.494183,301.706368 C217.681069,301.51877 217.785732,301.264585 217.785127,300.999785 L217.785127,256.999835 C217.785631,256.7351 217.680923,256.481014 217.494049,256.293497 C217.307174,256.105981 217.053448,256.000403 216.788713,256 L216.788713,256 Z M215.79268,299.99995 L161.992449,299.99995 L161.992449,258.00005 L215.79268,258.00005 L215.79268,299.99995 L215.79268,299.99995 Z M175.940713,278.137785 C178.19503,278.146095 180.231996,276.794523 181.10045,274.714187 C181.968904,272.63385 181.497521,270.235147 179.906414,268.638153 C178.315307,267.041159 175.918361,266.560921 173.834831,267.421686 C171.751302,268.282451 170.392216,270.314412 170.392201,272.568744 C170.389672,275.637477 172.871992,278.128981 175.940713,278.137785 L175.940713,278.137785 Z M175.940713,268.999752 C177.385331,268.994366 178.69072,269.860377 179.247393,271.193442 C179.804067,272.526507 179.502221,274.063681 178.482788,275.087256 C177.463356,276.11083 175.927418,276.418906 174.592107,275.867643 C173.256795,275.316379 172.385499,274.014511 172.385027,272.569884 C172.384389,270.603835 173.974674,269.007939 175.940713,269.001653 L175.940713,268.999752 Z M166.974135,295.999851 C167.2163,295.99994 167.450118,295.911362 167.631441,295.750843 L183.884267,281.388959 L194.14873,291.691438 C194.401287,291.943112 194.768926,292.040931 195.113161,291.948048 C195.457396,291.855164 195.72593,291.585689 195.817608,291.24113 C195.909286,290.896572 195.81018,290.529278 195.557622,290.277603 L190.76754,285.470413 L199.914697,275.416562 L211.132234,285.73805 C211.539555,286.109783 212.171104,286.080933 212.542837,285.673612 C212.914571,285.26629 212.885721,284.634742 212.478399,284.263008 L200.525622,273.262926 C200.32935,273.086414 200.072465,272.992568 199.808631,273.000992 C199.544135,273.013 199.295304,273.129823 199.11711,273.325653 L189.359408,284.052777 L184.633953,279.309835 C184.262804,278.9369 183.665347,278.917735 183.27106,279.266116 L166.315689,294.24881 C165.902093,294.614612 165.861988,295.245925 166.22597,295.661124 C166.414733,295.876787 166.68753,296.000295 166.974135,295.999851 L166.974135,295.999851 Z" id="icon-sm" fill="#22CFF1"></path>
                        </g>
                    </g>
                    <g id="Iphone_Mockup" transform="translate(0.000000, 156.000000)">
                        <g id="mockup">
                            <path d="M25.0453619,5.2408521e-13 L152.442802,5.2408521e-13 C158.696392,0.011920796 164.688615,2.51091281 169.098936,6.9462621 C173.509258,11.3816114 175.975703,17.3892888 175.954732,23.6453558 L175.954732,345.978408 C175.95418,352.216101 173.476728,358.198096 169.067386,362.608421 C164.658044,367.018747 158.678002,369.496132 152.442802,369.495581 L25.0453619,369.495581 C18.8101614,369.496132 12.8301196,367.018747 8.42077739,362.608421 C4.01143519,358.198096 1.53398295,352.216101 1.53343191,345.978408 L1.53343191,23.5164794 C1.51755625,17.2738249 3.98975604,11.2823479 8.40268458,6.86856551 C12.8156131,2.45478309 18.8052055,-0.0171693948 25.0453619,5.43778144e-13 L25.0453619,5.2408521e-13 Z" id="case" fill="#FDFDFD"></path>
                            <g id="side_btns" transform="translate(0.000000, 44.344569)">
                                <path d="M1.53689494,60.7139513 L1.53689494,60.7139513 L1.53689494,85.7658614 L1.53689494,85.7658614 C0.688091303,85.7658614 1.03948466e-16,85.077495 0,84.2283521 L0,62.2514607 C-1.03948466e-16,61.4023177 0.688091303,60.7139513 1.53689494,60.7139513 L1.53689494,60.7139513 Z" id="volume_down" fill="#EBEBEB"></path>
                                <path d="M1.53689494,26.4598502 L1.53689494,26.4598502 L1.53689494,51.5117603 L1.53689494,51.5117603 C0.688091303,51.5117603 1.03948466e-16,50.8233939 0,49.9742509 L0,27.9973596 C-1.03948466e-16,27.1482166 0.688091303,26.4598502 1.53689494,26.4598502 L1.53689494,26.4598502 Z" id="volume_up" fill="#EBEBEB"></path>
                                <path d="M1.14972763,0.00485018727 L1.53343191,0.00485018727 L1.53343191,17.6429026 L1.14972763,17.6429026 C0.843011538,17.6476405 0.547495931,17.527695 0.330784962,17.3105056 C0.114073994,17.0933162 -0.00528981883,16.7974664 2.00440521e-13,16.4906367 L2.00440521e-13,1.15503745 C-0.00472117894,0.848565315 0.114893829,0.553258468 0.331541477,0.336524208 C0.548189125,0.119789949 0.843377962,0.00012712089 1.14972763,0.00485018727 L1.14972763,0.00485018727 Z" id="sound_toggle" fill="#EBEBEB"></path>
                                <path d="M175.955424,26.0780712 L176.84958,26.0780712 C177.156415,26.0731435 177.452112,26.1930053 177.668974,26.4102159 C177.885837,26.6274264 178.005295,26.9233853 178,27.2303371 L178,51.0031835 C178.004731,51.3097162 177.885001,51.6050647 177.66818,51.8217113 C177.451359,52.0383578 177.155984,52.1577801 176.84958,52.1526779 L175.955424,52.1526779 L175.955424,26.0780712 L175.955424,26.0780712 Z" id="power_btn" fill="#EEEEEE"></path>
                            </g>
                            <g id="elems" transform="translate(9.003891, 21.479401)">
                                <polygon id="screen" stroke="#D9D9D9" fill="#FFFFFF" points="0 21.4794007 159.087673 21.4794007 159.087673 304.065169 0 304.065169"></polygon>
                                <ellipse id="home_btn" stroke="#EEEEEE" stroke-width="2" fill="#FCFCFC" cx="79.9961089" cy="324.626498" rx="13.9823502" ry="13.9879401"></ellipse>
                                <path d="M70.604358,0.503726592 L91.174786,0.503726592 C92.2353216,0.487437356 93.2223396,1.04412443 93.7573635,1.96032365 C94.2923874,2.87652287 94.2923874,4.01005016 93.7573635,4.92624938 C93.2223396,5.8424486 92.2353216,6.39913568 91.174786,6.38284644 L70.604358,6.38284644 C69.5438224,6.39913568 68.5568044,5.8424486 68.0217805,4.92624938 C67.4867566,4.01005016 67.4867566,2.87652287 68.0217805,1.96032365 C68.5568044,1.04412443 69.5438224,0.487437356 70.604358,0.503726592 Z" id="speaker" fill="#EBEBEB"></path>
                                <ellipse id="camera" fill="#EBEBEB" cx="54.8891051" cy="3.44294007" rx="2.294607" ry="2.29552434"></ellipse>
                            </g>
                        </g>
                        <path d="M107.900354,168.370787 L69.258218,168.370787 C69.0748609,168.371066 68.8991285,168.444219 68.7696977,168.574146 C68.640267,168.704073 68.5677457,168.880126 68.5680952,169.063556 L68.5680952,199.550413 C68.5676758,199.733889 68.6401661,199.910009 68.7696045,200.039993 C68.8990428,200.169977 69.0748152,200.243167 69.258218,200.243446 L107.900354,200.243446 C108.083757,200.243167 108.259529,200.169977 108.388968,200.039993 C108.518406,199.910009 108.590896,199.733889 108.590477,199.550413 L108.590477,169.063556 C108.590826,168.880126 108.518305,168.704073 108.388874,168.574146 C108.259443,168.444219 108.083711,168.371066 107.900354,168.370787 L107.900354,168.370787 Z M107.210495,198.857644 L69.9480774,198.857644 L69.9480774,169.756589 L107.210495,169.756589 L107.210495,198.857644 L107.210495,198.857644 Z M79.6087431,183.709701 C81.1700985,183.715459 82.5809158,182.778977 83.182413,181.337545 C83.7839102,179.896113 83.457427,178.234091 82.3554151,177.127559 C81.2534031,176.021028 79.5932615,175.688278 78.1501943,176.284689 C76.7071272,176.881099 75.7658152,178.289012 75.7658046,179.851002 C75.7640533,181.977278 77.4833253,183.703601 79.6087431,183.709701 L79.6087431,183.709701 Z M79.6087431,177.378105 C80.6092951,177.374374 81.5134169,177.974418 81.8989728,178.898078 C82.2845287,179.821737 82.0754682,180.88682 81.369402,181.596039 C80.6633357,182.305257 79.5995345,182.518718 78.6746886,182.136756 C77.7498426,181.754794 77.1463768,180.852751 77.1460501,179.851792 C77.1456078,178.489548 78.2470502,177.383778 79.6087431,177.379422 L79.6087431,177.378105 Z M73.398428,196.086039 C73.5661535,196.086101 73.7280976,196.024727 73.8536826,195.913505 L85.110504,185.962387 L92.2197429,193.100809 C92.3946658,193.27519 92.6492953,193.342968 92.8877149,193.27861 C93.1261345,193.214252 93.3121226,193.027537 93.3756193,192.788798 C93.439116,192.550059 93.3704747,192.295567 93.1955517,192.121186 L89.8779069,188.790361 L96.213292,181.82421 L103.982637,188.975802 C104.26475,189.23337 104.702165,189.213381 104.959631,188.931154 C105.217096,188.648928 105.197114,188.211338 104.915,187.95377 L96.6364233,180.33199 C96.5004833,180.209688 96.322563,180.144663 96.1398298,180.1505 C95.956638,180.15882 95.784296,180.239765 95.6608778,180.375452 L88.9026247,187.808104 L85.6297418,184.521796 C85.3726817,184.263395 84.9588788,184.250116 84.6857929,184.491503 L72.9423835,194.872771 C72.6559245,195.12623 72.6281475,195.563656 72.8802435,195.851341 C73.0109826,196.00077 73.1999235,196.086346 73.398428,196.086039 L73.398428,196.086039 Z" id="icon-sm" fill="#22CFF1"></path>
                    </g>
                </g>
            </g>
        </g>
    </g>
</svg>